<svg viewBox="0 0 229 45" xmlns="http://www.w3.org/2000/svg"><path d="M.639 13.396V7.78C.639 2.268 3.733.968 8.933.968h8.684c6.552 0 7.462 2.366 7.462 6.032v.598h-5.668c0-1.872-1.066-2.106-2.912-2.106h-6.266c-2.912 0-3.666.702-3.666 3.926v2.34c0 3.224.754 3.926 3.666 3.926h6.162c1.508 0 3.016-.234 3.016-2.054v-.546h-7.176v-3.9h12.948v5.356c0 5.408-2.808 5.668-9.308 5.668H8.933c-5.2 0-8.294-1.3-8.294-6.812zm33.8-7.54v4.576h9.542c1.56 0 2.132-.624 2.132-1.976v-.624c0-1.664-.832-1.976-2.652-1.976h-9.022zM28.667 20V1.176h17.42c4.446 0 5.642 2.21 5.642 5.59v1.196c0 2.522-.572 4.004-3.224 4.628v.052c1.716.312 3.146 1.066 3.146 4.16V20h-5.772v-2.262c0-1.976-.572-2.626-2.366-2.626h-9.074V20h-5.772zm26.546-6.604V7.78c0-5.512 3.094-6.812 8.294-6.812h9.256c5.2 0 8.294 1.3 8.294 6.812v5.616c0 5.512-3.094 6.812-8.294 6.812h-9.256c-5.2 0-8.294-1.3-8.294-6.812zm5.928-3.822v2.028c0 2.73.572 3.77 3.302 3.77h7.384c2.73 0 3.302-1.04 3.302-3.77V9.574c0-2.34-.572-3.77-3.614-3.77h-6.76c-3.042 0-3.614 1.43-3.614 3.77zM84.541 20V1.176h8.944l10.842 13.676h.052V1.176h5.772V20h-8.944L90.365 6.324h-.052V20h-5.772zm29.822 0V1.176h5.772V20h-5.772zm9.984 0V1.176h8.944l10.842 13.676h.052V1.176h5.772V20h-8.944L130.171 6.324h-.052V20h-5.772zm29.094-6.604V7.78c0-5.512 3.094-6.812 8.294-6.812h8.684c6.552 0 7.462 2.366 7.462 6.032v.598h-5.668c0-1.872-1.066-2.106-2.912-2.106h-6.266c-2.912 0-3.666.702-3.666 3.926v2.34c0 3.224.754 3.926 3.666 3.926h6.162c1.508 0 3.016-.234 3.016-2.054v-.546h-7.176v-3.9h12.948v5.356c0 5.408-2.808 5.668-9.308 5.668h-6.942c-5.2 0-8.294-1.3-8.294-6.812zM181.469 20V1.176h20.592v4.368h-14.82V8.56h14.04v3.9h-14.04v3.016h15.158V20h-20.93zm30.186-14.144v4.576h9.542c1.56 0 2.132-.624 2.132-1.976v-.624c0-1.664-.832-1.976-2.652-1.976h-9.022zM205.883 20V1.176h17.42c4.446 0 5.642 2.21 5.642 5.59v1.196c0 2.522-.572 4.004-3.224 4.628v.052c1.716.312 3.146 1.066 3.146 4.16V20h-5.772v-2.262c0-1.976-.572-2.626-2.366-2.626h-9.074V20h-5.772zM28.966 44V25.176h8.866l6.526 12.116 6.526-12.116h8.866V44h-5.616V30.48h-.052L46.516 44H42.2l-7.566-13.52h-.052V44h-5.616zm34.684-6.708V25.176h5.772v10.868c0 2.392.858 3.328 3.224 3.328h5.72c2.366 0 3.224-.936 3.224-3.328V25.176h5.772v12.116c0 4.68-2.418 6.916-7.722 6.916h-8.268c-5.304 0-7.722-2.236-7.722-6.916zm27.274 1.846v-1.3h5.772c.026 2.002.832 2.158 2.496 2.158h7.072c1.222 0 2.47-.13 2.47-1.586 0-1.638-.676-1.742-8.112-1.742-8.684 0-9.672-1.04-9.672-5.668 0-3.406.312-6.032 7.592-6.032h8.06c6.656 0 7.28 2.262 7.28 5.564v.598h-5.772c0-1.378-.156-1.95-2.808-1.95h-6.396c-1.3 0-2.184.442-2.184 1.456 0 1.638.702 1.69 6.89 1.664 8.97-.026 11.05.52 11.05 6.006 0 5.07-1.716 5.902-9.386 5.902h-6.994c-5.252 0-7.358-.988-7.358-5.07zm27.3 4.862V25.176h20.592v4.368h-14.82v3.016h14.04v3.9h-14.04v3.016h15.158V44h-20.93zm24.414-6.708V25.176h5.772v10.868c0 2.392.858 3.328 3.224 3.328h5.72c2.366 0 3.224-.936 3.224-3.328V25.176h5.772v12.116c0 4.68-2.418 6.916-7.722 6.916h-8.268c-5.304 0-7.722-2.236-7.722-6.916zM170.25 44V25.176h8.866l6.526 12.116 6.526-12.116h8.866V44h-5.616V30.48h-.052L187.8 44h-4.316l-7.566-13.52h-.052V44h-5.616z"></path></svg>