<svg width="355" height="338" viewBox="0 0 355 338" fill="none" xmlns="http://www.w3.org/2000/svg">
<mask id="path-1-outside-1_23_76" maskUnits="userSpaceOnUse" x="-1" y="0" width="356" height="338" fill="white">
<rect fill="white" x="-1" width="356" height="338"/>
<path d="M148.052 316.192C149.118 317.774 149.451 319.736 148.984 321.571C148.585 323.406 147.386 325.052 145.721 326.064C143.99 327.077 141.992 327.393 139.994 327.013C99.1035 318.217 63.008 295.436 38.6535 262.973C14.3057 230.509 3.40717 190.705 8.04564 151.091C12.6848 111.414 32.5333 74.8375 63.8005 48.2657C95.041 21.6813 135.532 6.99178 177.488 7C178.487 7 178.886 7.18542 180.352 7.54612C181.284 7.90619 181.55 8.43459 182.816 9.10031C183.548 9.76603 184.081 10.5558 184.481 11.4253C184.814 12.2947 185.013 13.2262 185.013 14.1634V78.0648L201.33 61.6687C201.995 60.9852 202.795 60.4347 203.727 60.055C204.593 59.669 205.592 59.4602 206.591 59.4348C207.59 59.4032 208.522 59.5614 209.454 59.8968C210.387 60.2322 211.252 60.7384 211.985 61.3839C212.651 62.0294 213.25 62.8014 213.65 63.662C214.05 64.5163 214.316 65.4402 214.316 66.3831C214.316 67.3197 214.183 68.2563 213.85 69.1295C213.45 70.0091 212.917 70.7875 212.251 71.4836L182.949 100.973C182.216 101.669 181.417 102.238 180.485 102.618C179.486 102.998 178.487 103.188 176.889 103.188C176.489 103.188 175.423 102.998 174.491 102.618C173.559 102.238 172.693 101.669 172.027 100.973L142.658 71.4836C141.326 70.1167 140.593 68.2752 140.66 66.3831C140.66 64.4847 141.526 62.118 142.991 61.3839C144.456 60.0803 146.387 59.3779 148.385 59.4348C150.383 59.4855 152.248 60.2891 153.646 61.6687L169.962 78.1281V21.4851C132.402 23.2253 96.8392 37.837 69.7542 62.6052C42.6826 87.3672 25.9735 120.653 22.7236 156.217C19.4767 191.8 29.9027 227.296 52.0728 256.138C73.6635 284.931 106.695 305.181 143.324 313.028C145.255 313.471 146.987 314.61 148.052 316.192ZM121.147 86.7977C120.614 87.6203 119.882 88.3164 119.082 88.8227C105.43 97.6187 94.3085 109.452 86.5833 123.311C78.858 137.17 74.7956 152.61 74.7956 168.304C74.7956 183.998 78.858 199.438 86.5833 212.727C94.3085 227.155 105.43 238.989 119.082 247.785C120.747 248.861 121.88 250.506 122.213 252.405C122.612 254.24 121.613 256.202 121.08 257.72C119.948 259.302 117.617 260.378 116.219 260.188C114.288 261.074 112.223 260.695 110.625 259.619C94.9079 249.494 82.1213 235.888 73.2373 219.941C64.3732 204.058 59.7381 186.339 59.7381 168.304C59.7381 150.332 64.3732 132.55 73.2373 116.666C82.1213 100.72 94.9079 87.1141 110.625 76.9891C111.424 76.4828 112.356 76.1031 113.289 75.85C114.288 75.6602 115.286 75.6602 116.285 75.85C117.218 75.9766 118.15 76.3563 119.016 76.8625C119.882 77.3688 120.548 78.0649 121.147 78.8242C121.68 79.5836 122.079 80.4695 122.279 81.4188C122.479 82.368 122.479 83.3172 122.279 84.2031C122.079 85.1524 121.746 86.0383 121.147 86.7977V86.7977ZM234.029 249.684C234.561 248.924 235.294 248.228 235.494 247.722V247.659C249.679 238.799 260.8 226.966 268.526 213.107C276.184 199.312 280.18 183.871 280.18 168.241C280.18 152.61 276.184 137.17 268.526 123.311C260.8 108.946 249.679 97.682 235.494 88.8227C235.294 88.3164 234.561 87.6203 234.029 86.8609C233.496 86.0383 233.096 85.1523 232.963 84.2664C232.164 83.3172 232.763 82.368 232.963 81.482C233.163 80.5328 233.562 79.6469 234.095 78.8875C234.695 78.1281 234.828 77.432 236.226 76.9258C237.025 76.4195 237.958 76.1031 238.957 75.9133C239.956 75.7234 240.888 75.7234 241.887 75.9133C242.886 76.1031 243.752 76.4828 244.617 77.0523C260.201 87.1773 273.054 100.783 281.845 116.666C290.702 132.55 294.765 150.269 294.765 168.241C294.765 186.276 290.702 203.995 281.845 219.878C273.054 235.762 260.201 249.367 244.617 259.492C243.752 260.062 242.886 260.441 241.887 260.631C240.888 260.821 239.956 260.821 238.957 260.631C237.958 260.441 237.025 259.555 236.226 259.619C234.828 259.113 234.695 258.416 234.095 257.657C233.562 256.898 233.163 256.012 232.963 255.062C232.763 254.177 232.164 253.227 232.963 252.278C233.096 251.392 233.496 250.506 234.029 249.684V249.684ZM214.982 10.9912C252.409 19.0488 285.841 38.8178 310.016 67.1235C330.261 90.9109 343.048 119.641 346.844 150.016C350.573 180.391 345.245 211.209 331.393 238.799C317.474 266.39 295.697 289.741 268.459 306.067C241.221 322.33 209.721 331 177.488 331C176.489 331 175.557 330.81 174.624 330.43C173.692 330.114 172.893 329.545 172.16 328.912C170.895 328.216 170.895 327.456 170.562 326.57C170.162 325.684 169.962 324.798 169.962 323.849V261.074L153.646 277.527C152.248 278.92 150.383 279.173 148.385 279.805C146.387 279.869 144.456 279.109 142.991 277.274C141.526 276.515 140.66 274.743 140.66 272.845C140.593 270.946 141.326 269.111 142.658 267.719L172.027 238.23C172.893 236.838 175.423 236.078 176.889 236.078C179.552 236.078 181.484 236.838 182.949 238.23L212.251 267.719C213.65 269.111 214.382 270.946 214.316 272.845C214.249 274.743 213.384 276.515 211.985 277.274C210.52 279.109 208.589 279.869 206.591 279.805C204.593 279.173 202.661 278.92 201.33 277.527L185.013 261.137V316.509C222.574 314.737 258.137 300.182 285.242 275.376C312.346 250.063 329.062 217.347 332.325 181.783C335.522 145.649 325.133 110.718 302.956 81.8617C280.78 53.0371 248.347 32.8124 211.719 24.9466C210.72 24.7377 209.854 24.3517 208.988 23.8138C208.189 23.2696 207.523 22.5862 206.99 21.7888C206.457 20.9978 205.525 20.1119 205.925 19.188C205.792 18.2641 205.792 17.3148 205.991 16.3973C206.258 15.486 206.657 14.6191 207.19 13.847C207.789 13.0813 208.522 12.4276 209.321 11.9258C210.187 11.4234 211.119 11.0823 212.052 10.9222C213.051 10.7621 214.05 10.7855 214.982 10.9912V10.9912ZM242.153 169.063C242.153 188.934 230.499 207.728 209.321 221.903C207.923 222.852 206.125 223.359 204.393 223.169C202.595 223.042 200.93 222.346 199.731 221.144L153.047 176.973C151.582 175.645 150.25 173.809 150.783 171.911C150.783 170.012 151.582 168.177 152.98 166.848C154.445 165.52 156.31 164.76 158.308 164.76C160.306 164.76 162.237 165.52 163.636 166.848L205.658 206.589C219.51 195.768 227.103 182.605 227.103 169.063C227.103 153.939 217.712 139.321 200.664 127.867C198.999 126.791 197.933 125.146 197.6 123.248C197.267 121.413 197.667 119.451 198.865 117.932C199.998 116.35 201.729 115.338 203.727 115.021C205.658 114.705 207.723 115.084 209.321 116.223C230.499 130.398 242.153 149.193 242.153 169.063ZM151.315 223.105C149.317 223.422 147.32 222.979 145.655 221.903C124.543 207.728 112.29 188.934 112.29 169.063C112.29 149.193 124.543 130.398 145.655 116.223C147.12 115.211 148.918 114.768 150.649 114.895C152.447 115.084 154.046 115.78 155.311 116.983L201.995 161.153C203.394 162.482 204.193 164.317 204.193 166.216C204.193 168.114 202.861 169.886 201.995 171.278C200.597 172.607 198.666 173.366 196.734 173.366C194.736 173.366 192.206 172.607 191.407 171.278L149.384 131.474C135.465 142.422 127.94 155.521 127.94 169.063C127.94 183.618 137.33 198.805 154.379 210.196C155.977 211.335 157.109 212.98 157.442 214.879C157.775 216.714 157.309 218.613 156.177 220.195C155.045 221.713 153.247 222.789 151.315 223.105V223.105Z"/>
</mask>
<path d="M148.052 316.192C149.118 317.774 149.451 319.736 148.984 321.571C148.585 323.406 147.386 325.052 145.721 326.064C143.99 327.077 141.992 327.393 139.994 327.013C99.1035 318.217 63.008 295.436 38.6535 262.973C14.3057 230.509 3.40717 190.705 8.04564 151.091C12.6848 111.414 32.5333 74.8375 63.8005 48.2657C95.041 21.6813 135.532 6.99178 177.488 7C178.487 7 178.886 7.18542 180.352 7.54612C181.284 7.90619 181.55 8.43459 182.816 9.10031C183.548 9.76603 184.081 10.5558 184.481 11.4253C184.814 12.2947 185.013 13.2262 185.013 14.1634V78.0648L201.33 61.6687C201.995 60.9852 202.795 60.4347 203.727 60.055C204.593 59.669 205.592 59.4602 206.591 59.4348C207.59 59.4032 208.522 59.5614 209.454 59.8968C210.387 60.2322 211.252 60.7384 211.985 61.3839C212.651 62.0294 213.25 62.8014 213.65 63.662C214.05 64.5163 214.316 65.4402 214.316 66.3831C214.316 67.3197 214.183 68.2563 213.85 69.1295C213.45 70.0091 212.917 70.7875 212.251 71.4836L182.949 100.973C182.216 101.669 181.417 102.238 180.485 102.618C179.486 102.998 178.487 103.188 176.889 103.188C176.489 103.188 175.423 102.998 174.491 102.618C173.559 102.238 172.693 101.669 172.027 100.973L142.658 71.4836C141.326 70.1167 140.593 68.2752 140.66 66.3831C140.66 64.4847 141.526 62.118 142.991 61.3839C144.456 60.0803 146.387 59.3779 148.385 59.4348C150.383 59.4855 152.248 60.2891 153.646 61.6687L169.962 78.1281V21.4851C132.402 23.2253 96.8392 37.837 69.7542 62.6052C42.6826 87.3672 25.9735 120.653 22.7236 156.217C19.4767 191.8 29.9027 227.296 52.0728 256.138C73.6635 284.931 106.695 305.181 143.324 313.028C145.255 313.471 146.987 314.61 148.052 316.192ZM121.147 86.7977C120.614 87.6203 119.882 88.3164 119.082 88.8227C105.43 97.6187 94.3085 109.452 86.5833 123.311C78.858 137.17 74.7956 152.61 74.7956 168.304C74.7956 183.998 78.858 199.438 86.5833 212.727C94.3085 227.155 105.43 238.989 119.082 247.785C120.747 248.861 121.88 250.506 122.213 252.405C122.612 254.24 121.613 256.202 121.08 257.72C119.948 259.302 117.617 260.378 116.219 260.188C114.288 261.074 112.223 260.695 110.625 259.619C94.9079 249.494 82.1213 235.888 73.2373 219.941C64.3732 204.058 59.7381 186.339 59.7381 168.304C59.7381 150.332 64.3732 132.55 73.2373 116.666C82.1213 100.72 94.9079 87.1141 110.625 76.9891C111.424 76.4828 112.356 76.1031 113.289 75.85C114.288 75.6602 115.286 75.6602 116.285 75.85C117.218 75.9766 118.15 76.3563 119.016 76.8625C119.882 77.3688 120.548 78.0649 121.147 78.8242C121.68 79.5836 122.079 80.4695 122.279 81.4188C122.479 82.368 122.479 83.3172 122.279 84.2031C122.079 85.1524 121.746 86.0383 121.147 86.7977V86.7977ZM234.029 249.684C234.561 248.924 235.294 248.228 235.494 247.722V247.659C249.679 238.799 260.8 226.966 268.526 213.107C276.184 199.312 280.18 183.871 280.18 168.241C280.18 152.61 276.184 137.17 268.526 123.311C260.8 108.946 249.679 97.682 235.494 88.8227C235.294 88.3164 234.561 87.6203 234.029 86.8609C233.496 86.0383 233.096 85.1523 232.963 84.2664C232.164 83.3172 232.763 82.368 232.963 81.482C233.163 80.5328 233.562 79.6469 234.095 78.8875C234.695 78.1281 234.828 77.432 236.226 76.9258C237.025 76.4195 237.958 76.1031 238.957 75.9133C239.956 75.7234 240.888 75.7234 241.887 75.9133C242.886 76.1031 243.752 76.4828 244.617 77.0523C260.201 87.1773 273.054 100.783 281.845 116.666C290.702 132.55 294.765 150.269 294.765 168.241C294.765 186.276 290.702 203.995 281.845 219.878C273.054 235.762 260.201 249.367 244.617 259.492C243.752 260.062 242.886 260.441 241.887 260.631C240.888 260.821 239.956 260.821 238.957 260.631C237.958 260.441 237.025 259.555 236.226 259.619C234.828 259.113 234.695 258.416 234.095 257.657C233.562 256.898 233.163 256.012 232.963 255.062C232.763 254.177 232.164 253.227 232.963 252.278C233.096 251.392 233.496 250.506 234.029 249.684V249.684ZM214.982 10.9912C252.409 19.0488 285.841 38.8178 310.016 67.1235C330.261 90.9109 343.048 119.641 346.844 150.016C350.573 180.391 345.245 211.209 331.393 238.799C317.474 266.39 295.697 289.741 268.459 306.067C241.221 322.33 209.721 331 177.488 331C176.489 331 175.557 330.81 174.624 330.43C173.692 330.114 172.893 329.545 172.16 328.912C170.895 328.216 170.895 327.456 170.562 326.57C170.162 325.684 169.962 324.798 169.962 323.849V261.074L153.646 277.527C152.248 278.92 150.383 279.173 148.385 279.805C146.387 279.869 144.456 279.109 142.991 277.274C141.526 276.515 140.66 274.743 140.66 272.845C140.593 270.946 141.326 269.111 142.658 267.719L172.027 238.23C172.893 236.838 175.423 236.078 176.889 236.078C179.552 236.078 181.484 236.838 182.949 238.23L212.251 267.719C213.65 269.111 214.382 270.946 214.316 272.845C214.249 274.743 213.384 276.515 211.985 277.274C210.52 279.109 208.589 279.869 206.591 279.805C204.593 279.173 202.661 278.92 201.33 277.527L185.013 261.137V316.509C222.574 314.737 258.137 300.182 285.242 275.376C312.346 250.063 329.062 217.347 332.325 181.783C335.522 145.649 325.133 110.718 302.956 81.8617C280.78 53.0371 248.347 32.8124 211.719 24.9466C210.72 24.7377 209.854 24.3517 208.988 23.8138C208.189 23.2696 207.523 22.5862 206.99 21.7888C206.457 20.9978 205.525 20.1119 205.925 19.188C205.792 18.2641 205.792 17.3148 205.991 16.3973C206.258 15.486 206.657 14.6191 207.19 13.847C207.789 13.0813 208.522 12.4276 209.321 11.9258C210.187 11.4234 211.119 11.0823 212.052 10.9222C213.051 10.7621 214.05 10.7855 214.982 10.9912V10.9912ZM242.153 169.063C242.153 188.934 230.499 207.728 209.321 221.903C207.923 222.852 206.125 223.359 204.393 223.169C202.595 223.042 200.93 222.346 199.731 221.144L153.047 176.973C151.582 175.645 150.25 173.809 150.783 171.911C150.783 170.012 151.582 168.177 152.98 166.848C154.445 165.52 156.31 164.76 158.308 164.76C160.306 164.76 162.237 165.52 163.636 166.848L205.658 206.589C219.51 195.768 227.103 182.605 227.103 169.063C227.103 153.939 217.712 139.321 200.664 127.867C198.999 126.791 197.933 125.146 197.6 123.248C197.267 121.413 197.667 119.451 198.865 117.932C199.998 116.35 201.729 115.338 203.727 115.021C205.658 114.705 207.723 115.084 209.321 116.223C230.499 130.398 242.153 149.193 242.153 169.063ZM151.315 223.105C149.317 223.422 147.32 222.979 145.655 221.903C124.543 207.728 112.29 188.934 112.29 169.063C112.29 149.193 124.543 130.398 145.655 116.223C147.12 115.211 148.918 114.768 150.649 114.895C152.447 115.084 154.046 115.78 155.311 116.983L201.995 161.153C203.394 162.482 204.193 164.317 204.193 166.216C204.193 168.114 202.861 169.886 201.995 171.278C200.597 172.607 198.666 173.366 196.734 173.366C194.736 173.366 192.206 172.607 191.407 171.278L149.384 131.474C135.465 142.422 127.94 155.521 127.94 169.063C127.94 183.618 137.33 198.805 154.379 210.196C155.977 211.335 157.109 212.98 157.442 214.879C157.775 216.714 157.309 218.613 156.177 220.195C155.045 221.713 153.247 222.789 151.315 223.105V223.105Z" fill="#0F595B"/>
<path d="M148.052 316.192C149.118 317.774 149.451 319.736 148.984 321.571C148.585 323.406 147.386 325.052 145.721 326.064C143.99 327.077 141.992 327.393 139.994 327.013C99.1035 318.217 63.008 295.436 38.6535 262.973C14.3057 230.509 3.40717 190.705 8.04564 151.091C12.6848 111.414 32.5333 74.8375 63.8005 48.2657C95.041 21.6813 135.532 6.99178 177.488 7C178.487 7 178.886 7.18542 180.352 7.54612C181.284 7.90619 181.55 8.43459 182.816 9.10031C183.548 9.76603 184.081 10.5558 184.481 11.4253C184.814 12.2947 185.013 13.2262 185.013 14.1634V78.0648L201.33 61.6687C201.995 60.9852 202.795 60.4347 203.727 60.055C204.593 59.669 205.592 59.4602 206.591 59.4348C207.59 59.4032 208.522 59.5614 209.454 59.8968C210.387 60.2322 211.252 60.7384 211.985 61.3839C212.651 62.0294 213.25 62.8014 213.65 63.662C214.05 64.5163 214.316 65.4402 214.316 66.3831C214.316 67.3197 214.183 68.2563 213.85 69.1295C213.45 70.0091 212.917 70.7875 212.251 71.4836L182.949 100.973C182.216 101.669 181.417 102.238 180.485 102.618C179.486 102.998 178.487 103.188 176.889 103.188C176.489 103.188 175.423 102.998 174.491 102.618C173.559 102.238 172.693 101.669 172.027 100.973L142.658 71.4836C141.326 70.1167 140.593 68.2752 140.66 66.3831C140.66 64.4847 141.526 62.118 142.991 61.3839C144.456 60.0803 146.387 59.3779 148.385 59.4348C150.383 59.4855 152.248 60.2891 153.646 61.6687L169.962 78.1281V21.4851C132.402 23.2253 96.8392 37.837 69.7542 62.6052C42.6826 87.3672 25.9735 120.653 22.7236 156.217C19.4767 191.8 29.9027 227.296 52.0728 256.138C73.6635 284.931 106.695 305.181 143.324 313.028C145.255 313.471 146.987 314.61 148.052 316.192ZM121.147 86.7977C120.614 87.6203 119.882 88.3164 119.082 88.8227C105.43 97.6187 94.3085 109.452 86.5833 123.311C78.858 137.17 74.7956 152.61 74.7956 168.304C74.7956 183.998 78.858 199.438 86.5833 212.727C94.3085 227.155 105.43 238.989 119.082 247.785C120.747 248.861 121.88 250.506 122.213 252.405C122.612 254.24 121.613 256.202 121.08 257.72C119.948 259.302 117.617 260.378 116.219 260.188C114.288 261.074 112.223 260.695 110.625 259.619C94.9079 249.494 82.1213 235.888 73.2373 219.941C64.3732 204.058 59.7381 186.339 59.7381 168.304C59.7381 150.332 64.3732 132.55 73.2373 116.666C82.1213 100.72 94.9079 87.1141 110.625 76.9891C111.424 76.4828 112.356 76.1031 113.289 75.85C114.288 75.6602 115.286 75.6602 116.285 75.85C117.218 75.9766 118.15 76.3563 119.016 76.8625C119.882 77.3688 120.548 78.0649 121.147 78.8242C121.68 79.5836 122.079 80.4695 122.279 81.4188C122.479 82.368 122.479 83.3172 122.279 84.2031C122.079 85.1524 121.746 86.0383 121.147 86.7977V86.7977ZM234.029 249.684C234.561 248.924 235.294 248.228 235.494 247.722V247.659C249.679 238.799 260.8 226.966 268.526 213.107C276.184 199.312 280.18 183.871 280.18 168.241C280.18 152.61 276.184 137.17 268.526 123.311C260.8 108.946 249.679 97.682 235.494 88.8227C235.294 88.3164 234.561 87.6203 234.029 86.8609C233.496 86.0383 233.096 85.1523 232.963 84.2664C232.164 83.3172 232.763 82.368 232.963 81.482C233.163 80.5328 233.562 79.6469 234.095 78.8875C234.695 78.1281 234.828 77.432 236.226 76.9258C237.025 76.4195 237.958 76.1031 238.957 75.9133C239.956 75.7234 240.888 75.7234 241.887 75.9133C242.886 76.1031 243.752 76.4828 244.617 77.0523C260.201 87.1773 273.054 100.783 281.845 116.666C290.702 132.55 294.765 150.269 294.765 168.241C294.765 186.276 290.702 203.995 281.845 219.878C273.054 235.762 260.201 249.367 244.617 259.492C243.752 260.062 242.886 260.441 241.887 260.631C240.888 260.821 239.956 260.821 238.957 260.631C237.958 260.441 237.025 259.555 236.226 259.619C234.828 259.113 234.695 258.416 234.095 257.657C233.562 256.898 233.163 256.012 232.963 255.062C232.763 254.177 232.164 253.227 232.963 252.278C233.096 251.392 233.496 250.506 234.029 249.684V249.684ZM214.982 10.9912C252.409 19.0488 285.841 38.8178 310.016 67.1235C330.261 90.9109 343.048 119.641 346.844 150.016C350.573 180.391 345.245 211.209 331.393 238.799C317.474 266.39 295.697 289.741 268.459 306.067C241.221 322.33 209.721 331 177.488 331C176.489 331 175.557 330.81 174.624 330.43C173.692 330.114 172.893 329.545 172.16 328.912C170.895 328.216 170.895 327.456 170.562 326.57C170.162 325.684 169.962 324.798 169.962 323.849V261.074L153.646 277.527C152.248 278.92 150.383 279.173 148.385 279.805C146.387 279.869 144.456 279.109 142.991 277.274C141.526 276.515 140.66 274.743 140.66 272.845C140.593 270.946 141.326 269.111 142.658 267.719L172.027 238.23C172.893 236.838 175.423 236.078 176.889 236.078C179.552 236.078 181.484 236.838 182.949 238.23L212.251 267.719C213.65 269.111 214.382 270.946 214.316 272.845C214.249 274.743 213.384 276.515 211.985 277.274C210.52 279.109 208.589 279.869 206.591 279.805C204.593 279.173 202.661 278.92 201.33 277.527L185.013 261.137V316.509C222.574 314.737 258.137 300.182 285.242 275.376C312.346 250.063 329.062 217.347 332.325 181.783C335.522 145.649 325.133 110.718 302.956 81.8617C280.78 53.0371 248.347 32.8124 211.719 24.9466C210.72 24.7377 209.854 24.3517 208.988 23.8138C208.189 23.2696 207.523 22.5862 206.99 21.7888C206.457 20.9978 205.525 20.1119 205.925 19.188C205.792 18.2641 205.792 17.3148 205.991 16.3973C206.258 15.486 206.657 14.6191 207.19 13.847C207.789 13.0813 208.522 12.4276 209.321 11.9258C210.187 11.4234 211.119 11.0823 212.052 10.9222C213.051 10.7621 214.05 10.7855 214.982 10.9912V10.9912ZM242.153 169.063C242.153 188.934 230.499 207.728 209.321 221.903C207.923 222.852 206.125 223.359 204.393 223.169C202.595 223.042 200.93 222.346 199.731 221.144L153.047 176.973C151.582 175.645 150.25 173.809 150.783 171.911C150.783 170.012 151.582 168.177 152.98 166.848C154.445 165.52 156.31 164.76 158.308 164.76C160.306 164.76 162.237 165.52 163.636 166.848L205.658 206.589C219.51 195.768 227.103 182.605 227.103 169.063C227.103 153.939 217.712 139.321 200.664 127.867C198.999 126.791 197.933 125.146 197.6 123.248C197.267 121.413 197.667 119.451 198.865 117.932C199.998 116.35 201.729 115.338 203.727 115.021C205.658 114.705 207.723 115.084 209.321 116.223C230.499 130.398 242.153 149.193 242.153 169.063ZM151.315 223.105C149.317 223.422 147.32 222.979 145.655 221.903C124.543 207.728 112.29 188.934 112.29 169.063C112.29 149.193 124.543 130.398 145.655 116.223C147.12 115.211 148.918 114.768 150.649 114.895C152.447 115.084 154.046 115.78 155.311 116.983L201.995 161.153C203.394 162.482 204.193 164.317 204.193 166.216C204.193 168.114 202.861 169.886 201.995 171.278C200.597 172.607 198.666 173.366 196.734 173.366C194.736 173.366 192.206 172.607 191.407 171.278L149.384 131.474C135.465 142.422 127.94 155.521 127.94 169.063C127.94 183.618 137.33 198.805 154.379 210.196C155.977 211.335 157.109 212.98 157.442 214.879C157.775 216.714 157.309 218.613 156.177 220.195C155.045 221.713 153.247 222.789 151.315 223.105V223.105Z" stroke="#0F595B" stroke-width="14" mask="url(#path-1-outside-1_23_76)"/>
</svg>
